<?xml version="1.0" encoding="UTF-8" standalone="yes"?>
<svg xmlns="http://www.w3.org/2000/svg" version="1.2" baseProfile="tiny-ps" viewBox="0 0 100 100"
    xml:space="preserve">
<title>IT Wiz Solutions, Inc.</title>
<linearGradient id="SVGID_1_" gradientUnits="userSpaceOnUse" x1="2.0917" y1="50" x2="97.9083" y2="50">
<stop offset="0" stop-color="#32489E"></stop><stop offset="1" stop-color="#24ACE3"></stop>
</linearGradient>
<g>
<g>
<g>
<path fill="url(#SVGID_1_)" d="M64.911,27.692c0.202-0.077,0.379-0.206,0.514-0.37c6.117,2.357,10.153,8.183,10.153,14.831  c0,1.767-0.289,3.505-0.858,5.163l-0.192,0.56h3.305c5.984,0,11.182,4.203,12.528,9.945c-0.361,0.215-0.604,0.609-0.604,1.059  c0,0.68,0.553,1.233,1.233,1.233c0.68,0,1.233-0.553,1.233-1.233c0-0.611-0.447-1.118-1.03-1.215  c-1.42-6.138-6.969-10.634-13.36-10.634h-2.132c0.479-1.576,0.722-3.214,0.722-4.878c0-3.653-1.155-7.124-3.341-10.039  c-1.881-2.508-4.472-4.46-7.379-5.586c-0.007-0.674-0.557-1.22-1.232-1.22c-0.68,0-1.233,0.553-1.233,1.233  c0,0.538,0.346,0.995,0.827,1.163L64.911,27.692z M64.472,27.14c-0.33,0-0.599-0.269-0.599-0.599c0-0.33,0.269-0.599,0.599-0.599  c0.33,0,0.599,0.269,0.599,0.599C65.071,26.871,64.802,27.14,64.472,27.14z M90.991,59.479c-0.33,0-0.599-0.269-0.599-0.599  c0-0.33,0.269-0.599,0.599-0.599c0.33,0,0.599,0.269,0.599,0.599C91.59,59.21,91.321,59.479,90.991,59.479z M61.051,27.009  c0.472-0.173,0.81-0.626,0.81-1.157c0-0.68-0.553-1.233-1.233-1.233c-0.523,0-0.97,0.328-1.149,0.789  c-7.351,0.086-13.766,4.944-15.852,11.949c-2.009-1.424-4.366-2.174-6.854-2.174c-6.541,0-11.864,5.312-11.883,11.848h-3.041  c-6.392,0-11.939,4.496-13.36,10.634c-0.584,0.097-1.031,0.604-1.031,1.215c0,0.68,0.553,1.233,1.233,1.233  c0.68,0,1.233-0.553,1.233-1.233c0-0.45-0.243-0.843-0.604-1.058c1.345-5.742,6.542-9.945,12.528-9.945h3.908l-0.014-0.437  c-0.004-0.124-0.007-0.248-0.007-0.373c0-6.086,4.952-11.038,11.038-11.038c2.507,0,4.87,0.819,6.833,2.369l0.509,0.402l0.162-0.629  c1.791-6.949,8.017-11.823,15.185-11.918c0.121,0.35,0.395,0.628,0.742,0.756L61.051,27.009z M8.691,59.479  c-0.33,0-0.599-0.269-0.599-0.599c0-0.33,0.269-0.599,0.599-0.599c0.33,0,0.599,0.269,0.599,0.599  C9.29,59.21,9.021,59.479,8.691,59.479z M60.628,26.451c-0.33,0-0.599-0.269-0.599-0.599c0-0.33,0.269-0.599,0.599-0.599  c0.33,0,0.599,0.269,0.599,0.599C61.227,26.183,60.958,26.451,60.628,26.451z M21.463,40.272c0.68,0,1.233-0.553,1.233-1.233  c0-0.216-0.056-0.419-0.154-0.596c3.046-5.038,8.463-8.126,14.39-8.126c1.34,0,2.677,0.16,3.975,0.476l0.439,0.107l0.244-0.38  c4.023-6.249,10.843-9.98,18.246-9.98c10.716,0,19.74,7.772,21.407,18.243c-0.307,0.224-0.508,0.587-0.508,0.996  c0,0.68,0.553,1.233,1.233,1.233c0.68,0,1.233-0.553,1.233-1.233c0-0.485-0.282-0.905-0.691-1.106  c-0.809-5.185-3.384-9.946-7.323-13.497c-4.223-3.807-9.675-5.904-15.351-5.904c-7.687,0-14.781,3.8-19.067,10.188  c-1.258-0.273-2.547-0.411-3.837-0.411c-6.382,0-12.214,3.329-15.487,8.757c-0.672,0.01-1.215,0.558-1.215,1.232  C20.23,39.719,20.783,40.272,21.463,40.272z M81.967,39.18c0.33,0,0.599,0.269,0.599,0.599s-0.269,0.599-0.599,0.599  c-0.33,0-0.599-0.269-0.599-0.599S81.637,39.18,81.967,39.18z M21.463,38.44c0.33,0,0.599,0.269,0.599,0.599  c0,0.33-0.269,0.599-0.599,0.599c-0.33,0-0.599-0.269-0.599-0.599C20.864,38.709,21.133,38.44,21.463,38.44z M94.228,49.29  c-2.145-3.014-5.036-5.34-8.401-6.783c-0.119-0.556-0.614-0.974-1.205-0.974c-0.68,0-1.233,0.553-1.233,1.233  c0,0.68,0.553,1.233,1.233,1.233c0.302,0,0.579-0.11,0.794-0.291c6.757,2.943,11.224,9.682,11.224,17.104  c0,10.282-8.365,18.647-18.647,18.647H22.007c-10.282,0-18.647-8.365-18.647-18.647c0-8.374,5.7-15.771,13.696-17.977  c0.222,0.214,0.523,0.346,0.854,0.346c0.68,0,1.233-0.553,1.233-1.233c0-0.68-0.553-1.233-1.233-1.233  c-0.563,0-1.038,0.38-1.185,0.896c-3.95,1.091-7.519,3.41-10.138,6.612c-2.899,3.544-4.495,8.015-4.495,12.589  c0,10.981,8.934,19.916,19.915,19.916h55.986c10.981,0,19.915-8.934,19.915-19.916C97.908,56.657,96.636,52.673,94.228,49.29z   M84.622,43.366c-0.33,0-0.599-0.269-0.599-0.599c0-0.33,0.269-0.599,0.599-0.599c0.33,0,0.599,0.269,0.599,0.599  C85.221,43.097,84.952,43.366,84.622,43.366z M17.91,41.348c0.33,0,0.599,0.269,0.599,0.599c0,0.33-0.269,0.599-0.599,0.599  c-0.33,0-0.599-0.269-0.599-0.599C17.311,41.617,17.58,41.348,17.91,41.348z M51.705,75.299c0.545,0,1.007-0.355,1.17-0.846h24.959  c6.4,0,11.955-4.509,13.366-10.66c0.581-0.1,1.024-0.605,1.024-1.214c0-0.68-0.553-1.233-1.233-1.233  c-0.68,0-1.233,0.553-1.233,1.233c0,0.452,0.245,0.847,0.609,1.062c-1.337,5.753-6.541,9.967-12.533,9.967H52.849  c-0.182-0.454-0.626-0.775-1.144-0.775c-0.68,0-1.233,0.553-1.233,1.233C50.472,74.746,51.025,75.299,51.705,75.299z M90.991,61.98  c0.33,0,0.599,0.269,0.599,0.599c0,0.33-0.269,0.599-0.599,0.599c-0.33,0-0.599-0.269-0.599-0.599  C90.392,62.249,90.661,61.98,90.991,61.98z M51.705,73.467c0.33,0,0.599,0.269,0.599,0.599c0,0.33-0.269,0.599-0.599,0.599  c-0.33,0-0.599-0.269-0.599-0.599C51.106,73.735,51.375,73.467,51.705,73.467z M55.31,49.022c0-0.662-0.129-1.306-0.373-1.907  c0.136-0.184,0.217-0.411,0.217-0.657c0-0.612-0.498-1.11-1.11-1.11c-0.612,0-1.11,0.498-1.11,1.11s0.498,1.11,1.11,1.11  c0.053,0,0.105-0.005,0.156-0.012c0.173,0.465,0.263,0.959,0.263,1.466c0,1.491-0.762,2.842-2.04,3.615l-0.242,0.146l1.535,10.113  H46.97c-0.167-0.403-0.563-0.687-1.026-0.687c-0.612,0-1.11,0.498-1.11,1.11s0.498,1.11,1.11,1.11c0.462,0,0.859-0.284,1.026-0.687  h7.731l-1.599-10.536C54.49,52.259,55.31,50.716,55.31,49.022z M54.045,46.934c-0.262,0-0.476-0.213-0.476-0.476  s0.213-0.476,0.476-0.476c0.262,0,0.476,0.213,0.476,0.476S54.307,46.934,54.045,46.934z M45.944,63.795  c-0.262,0-0.476-0.213-0.476-0.476s0.213-0.476,0.476-0.476s0.476,0.213,0.476,0.476S46.207,63.795,45.944,63.795z M8.483,63.793  c1.41,6.153,6.961,10.66,13.366,10.66h24.941c0.168,0.481,0.626,0.828,1.163,0.828c0.68,0,1.233-0.553,1.233-1.233  c0-0.68-0.553-1.233-1.233-1.233c-0.525,0-0.973,0.33-1.151,0.793H21.849c-5.997,0-11.196-4.212-12.533-9.967  c0.364-0.215,0.609-0.61,0.609-1.062c0-0.68-0.553-1.233-1.233-1.233c-0.68,0-1.233,0.553-1.233,1.233  C7.458,63.188,7.902,63.694,8.483,63.793z M47.952,73.449c0.33,0,0.599,0.269,0.599,0.599c0,0.33-0.269,0.599-0.599,0.599  s-0.599-0.269-0.599-0.599C47.353,73.717,47.622,73.449,47.952,73.449z M8.691,61.98c0.33,0,0.599,0.269,0.599,0.599  c0,0.33-0.269,0.599-0.599,0.599c-0.33,0-0.599-0.269-0.599-0.599C8.092,62.249,8.361,61.98,8.691,61.98z M50.243,44.801  c0.098,0,0.195,0.004,0.291,0.011c0.116,0.489,0.555,0.854,1.079,0.854c0.612,0,1.11-0.498,1.11-1.11c0-0.612-0.498-1.11-1.11-1.11  c-0.398,0-0.747,0.212-0.943,0.528c-0.142-0.012-0.284-0.018-0.427-0.018c-2.794,0-5.067,2.273-5.067,5.067  c0,1.541,0.709,3.003,1.91,3.961l-0.914,6.08c-0.468,0.13-0.813,0.559-0.813,1.068c0,0.612,0.498,1.11,1.11,1.11  c0.612,0,1.11-0.498,1.11-1.11c0-0.415-0.229-0.777-0.567-0.967l0.986-6.56l-0.21-0.151c-1.106-0.792-1.766-2.076-1.766-3.432  C46.021,46.695,47.915,44.801,50.243,44.801z M51.613,44.08c0.262,0,0.476,0.213,0.476,0.476c0,0.262-0.213,0.476-0.476,0.476  s-0.476-0.213-0.476-0.476C51.138,44.294,51.351,44.08,51.613,44.08z M46.469,60.608c-0.262,0-0.476-0.213-0.476-0.476  s0.213-0.476,0.476-0.476c0.262,0,0.476,0.213,0.476,0.476S46.731,60.608,46.469,60.608z">
</path>
</g></g></g>
</svg>