<?xml version="1.0" encoding="UTF-8"?>
<svg id="ITWIZ.IO_Shape" data-name="ITWIZ.IO Shape" xmlns="http://www.w3.org/2000/svg" baseProfile="tiny-ps" version="1.2" viewBox="0 0 100 100">
<title>IT Wiz Solutions, Inc.</title>
  <path d="M100,100H0V0c33.33,0,66.67,0,100,0v100ZM43.32,33.25c-2.66-1.25-6.75-1.68-9.9-1-4.33.92-7.87,3.1-10.53,6.65-1.89,2.52-3.03,5.35-3.38,8.48-.01.12-.22.29-.37.33-2.18.5-4.14,1.46-5.75,3-3.36,3.23-4.69,7.16-3.77,11.77,1.38,6.95,8.62,11.36,15.46,9.45,3.59-1,6.16-3.28,7.97-6.42.77-1.34,1.22-2.86,1.81-4.3.06-.16.13-.31.2-.46.07.02.13.05.2.07-.1,2.51-.94,4.78-2.38,6.84-1.45,2.08-3.37,3.62-5.77,4.7.15.02.18.02.21.02,15.95,0,31.9,0,47.85,0,.65,0,1.3-.03,1.94-.09,3.23-.29,6.1-1.49,8.47-3.68,3.87-3.56,5.54-8,4.8-13.25-.55-3.88-2.42-7.05-5.49-9.46-4.88-3.84-11.38-4.21-16.72-1.09-2.16,1.26-4.16,2.69-5.6,4.79-.09.13-.26.21-.39.31-.05-.03-.09-.06-.14-.09.09-.23.15-.48.28-.7.8-1.38,1.84-2.56,3.05-3.59,3.38-2.89,7.3-4.1,11.71-3.82.22.01.45.04.71.07-1.21-4.05-3.4-7.39-6.67-9.95-4.78-3.74-10.2-5.07-16.17-3.91-3.56.69-6.71,2.28-9.37,4.77-2.85,2.67-4.92,5.87-6.38,9.48-.06.15-.24.25-.37.37-.03-.18-.12-.37-.08-.53.43-1.73,1.05-3.39,1.98-4.91.8-1.31,1.71-2.56,2.59-3.86Z" fill="#fefefe" stroke-width="0"/>
  <path d="M43.32,33.25c-.88,1.3-1.79,2.55-2.59,3.86-.93,1.52-1.55,3.18-1.98,4.91-.04.16.05.35.08.53.13-.12.31-.22.37-.37,1.47-3.61,3.54-6.81,6.38-9.48,2.66-2.49,5.8-4.08,9.37-4.77,5.97-1.16,11.39.17,16.17,3.91,3.27,2.56,5.46,5.9,6.67,9.95-.26-.03-.49-.05-.71-.07-4.41-.28-8.33.93-11.71,3.82-1.21,1.04-2.25,2.22-3.05,3.59-.12.21-.19.46-.28.7.05.03.09.06.14.09.13-.1.3-.18.39-.31,1.44-2.1,3.44-3.53,5.6-4.79,5.34-3.12,11.84-2.74,16.72,1.09,3.07,2.41,4.94,5.58,5.49,9.46.74,5.25-.93,9.68-4.8,13.25-2.38,2.19-5.24,3.39-8.47,3.68-.65.06-1.3.09-1.94.09-15.95,0-31.9,0-47.85,0-.03,0-.06,0-.21-.02,2.4-1.08,4.32-2.62,5.77-4.7,1.44-2.06,2.28-4.34,2.38-6.84-.07-.02-.13-.05-.2-.07-.07.15-.13.31-.2.46-.59,1.44-1.04,2.97-1.81,4.3-1.81,3.14-4.38,5.42-7.97,6.42-6.83,1.91-14.08-2.5-15.46-9.45-.92-4.61.41-8.54,3.77-11.77,1.61-1.55,3.57-2.5,5.75-3,.14-.03.35-.2.37-.33.35-3.14,1.49-5.97,3.38-8.48,2.66-3.55,6.2-5.73,10.53-6.65,3.15-.67,7.24-.25,9.9,1ZM41.96,60.08c.65,0,1.23-.03,1.81,0,.37.02.52-.13.65-.45,1.19-2.78,2.41-5.55,3.61-8.33.05-.13.09-.26.15-.43-.61,0-1.16.02-1.71,0-.28-.01-.41.08-.5.35-.72,2-1.45,4-2.18,6-.05.13-.1.25-.15.37-.03,0-.06-.01-.09-.02v-6.7c-.66,0-1.26.02-1.85,0-.29-.01-.4.11-.5.36-.72,1.93-1.45,3.86-2.18,5.79-.08.22-.17.45-.25.67-.03,0-.05-.01-.08-.02v-6.76h-2.21c.04.52.07,1,.1,1.48.14,2.43.28,4.85.41,7.28.02.29.1.42.41.4.52-.02,1.03-.02,1.55,0,.29.01.42-.1.51-.35.74-1.94,1.49-3.88,2.24-5.82.04-.1.09-.19.14-.28.04,0,.07.01.11.02v6.43ZM71.02,60.21c1.17,0,2.24-.33,3.16-1.04,1.66-1.28,2.34-3.05,2.27-5.08-.06-1.8-1.02-2.94-2.55-3.26-1-.21-1.99-.12-2.94.26-2.14.85-3.56,3.08-3.54,5.55.02,2.21,1.4,3.58,3.61,3.58ZM54.05,58.34c1.7-1.97,3.3-3.84,4.93-5.68.47-.52.63-1.08.66-1.76h-6.63c-.1.56-.19,1.1-.3,1.71h3.95c-.15.18-.23.3-.33.41-1.62,1.86-3.23,3.72-4.86,5.57-.39.44-.4.94-.46,1.49,2.31,0,4.58,0,6.84,0,.1,0,.28-.1.3-.18.11-.5.18-1,.27-1.55h-4.37ZM35.7,50.92h-7.08c-.09.57-.18,1.11-.28,1.71h2.45c-.44,2.51-.87,4.95-1.3,7.42h2.08c.44-2.49.88-4.95,1.32-7.45h2.5c.1-.57.2-1.11.31-1.68ZM25.44,50.91c-.54,3.06-1.07,6.09-1.61,9.17.61,0,1.14-.02,1.67,0,.35.02.45-.13.5-.44.38-2.23.78-4.46,1.17-6.68.12-.68.23-1.36.34-2.05h-2.08ZM49.77,60.05c.54-3.05,1.07-6.09,1.61-9.15h-2.09c-.54,3.05-1.07,6.09-1.61,9.15h2.09ZM63.25,60.08c.63,0,1.16-.02,1.69,0,.32.01.42-.11.47-.42.34-2.02.71-4.03,1.07-6.05.16-.89.3-1.79.47-2.74-.61,0-1.16.01-1.71,0-.29-.01-.39.08-.44.38-.31,1.84-.65,3.67-.97,5.5-.19,1.08-.37,2.16-.57,3.32ZM60.43,60.21c.81,0,1.47-.7,1.46-1.52,0-.6-.4-.98-1.01-.99-.81,0-1.48.67-1.48,1.5,0,.63.39,1.01,1.03,1.01Z" fill="#f6582d" stroke-width="0"/>
  <path d="M41.96,60.08v-6.43s-.07-.01-.11-.02c-.05.09-.1.19-.14.28-.75,1.94-1.5,3.88-2.24,5.82-.1.25-.22.37-.51.35-.52-.03-1.03-.02-1.55,0-.31.01-.39-.11-.41-.4-.13-2.43-.27-4.85-.41-7.28-.03-.48-.06-.96-.1-1.48h2.21v6.76s.05.01.08.02c.08-.22.17-.45.25-.67.73-1.93,1.46-3.86,2.18-5.79.09-.25.2-.37.5-.36.6.03,1.2,0,1.85,0v6.7s.06.01.09.02c.05-.12.1-.25.15-.37.73-2,1.46-4,2.18-6,.1-.27.22-.36.5-.35.55.02,1.1,0,1.71,0-.06.17-.1.3-.15.43-1.2,2.78-2.42,5.55-3.61,8.33-.14.31-.28.47-.65.45-.58-.04-1.16,0-1.81,0Z" fill="#fefcfb" stroke-width="0"/>
  <path d="M71.02,60.21c-2.21,0-3.59-1.37-3.61-3.58-.02-2.47,1.4-4.69,3.54-5.55.95-.38,1.94-.47,2.94-.26,1.54.32,2.49,1.46,2.55,3.26.07,2.03-.6,3.8-2.27,5.08-.93.72-1.99,1.05-3.16,1.04ZM74.23,54.6c0-.12,0-.34-.03-.55-.17-1.44-1.44-2.11-2.71-1.41-.34.19-.66.46-.9.78-.81,1.09-1.11,2.34-.88,3.68.18,1.07,1.01,1.62,2.07,1.43.72-.13,1.23-.56,1.63-1.14.55-.81.79-1.71.82-2.78Z" fill="#fefcfb" stroke-width="0"/>
  <path d="M54.05,58.34h4.37c-.09.55-.16,1.05-.27,1.55-.02.08-.19.18-.3.18-2.26.01-4.52,0-6.84,0,.06-.55.07-1.05.46-1.49,1.64-1.84,3.24-3.71,4.86-5.57.09-.11.18-.22.33-.41h-3.95c.11-.61.2-1.15.3-1.71h6.63c-.02.67-.19,1.24-.66,1.76-1.64,1.83-3.23,3.71-4.93,5.68Z" fill="#fefbfa" stroke-width="0"/>
  <path d="M35.7,50.92c-.1.57-.2,1.11-.31,1.68h-2.5c-.44,2.49-.88,4.96-1.32,7.45h-2.08c.43-2.47.86-4.91,1.3-7.42h-2.45c.1-.6.18-1.14.28-1.71h7.08Z" fill="#fefcfc" stroke-width="0"/>
  <path d="M25.44,50.91h2.08c-.12.69-.23,1.37-.34,2.05-.39,2.23-.79,4.45-1.17,6.68-.05.31-.15.46-.5.44-.53-.03-1.06,0-1.67,0,.54-3.08,1.08-6.11,1.61-9.17Z" fill="#fefbfb" stroke-width="0"/>
  <path d="M49.77,60.05h-2.09c.54-3.07,1.08-6.1,1.61-9.15h2.09c-.54,3.06-1.08,6.1-1.61,9.15Z" fill="#fefbfb" stroke-width="0"/>
  <path d="M63.25,60.08c.2-1.16.38-2.24.57-3.32.32-1.83.66-3.67.97-5.5.05-.3.15-.39.44-.38.55.02,1.09,0,1.71,0-.16.95-.31,1.85-.47,2.74-.36,2.02-.72,4.03-1.07,6.05-.05.31-.15.43-.47.42-.53-.02-1.06,0-1.69,0Z" fill="#fefbfb" stroke-width="0"/>
  <path d="M60.43,60.21c-.64,0-1.04-.38-1.03-1.01,0-.83.66-1.5,1.48-1.5.62,0,1,.38,1.01.99.01.83-.65,1.52-1.46,1.52Z" fill="#fefaf9" stroke-width="0"/>
  <path d="M74.23,54.6c-.02,1.07-.27,1.97-.82,2.78-.4.58-.91,1.01-1.63,1.14-1.07.19-1.89-.36-2.07-1.43-.23-1.34.07-2.59.88-3.68.23-.31.56-.59.9-.78,1.27-.7,2.54-.02,2.71,1.41.03.21.03.43.03.55Z" fill="#f6592e" stroke-width="0"/>
</svg>